<svg xmlns="http://www.w3.org/2000/svg" viewBox="0 0 240 34"><g fill="none" fill-rule="evenodd"><path fill="#344861" d="M12.01 33.334a12.82 12.82 0 0 1-3.82-.566 11.028 11.028 0 0 1-3.344-1.697 11.734 11.734 0 0 1-2.648-2.764C1.445 27.22.852 25.95.418 24.5l5.513-2.176c.406 1.567 1.115 2.865 2.128 3.895 1.013 1.03 2.344 1.545 3.994 1.545.608 0 1.194-.08 1.759-.24a5.203 5.203 0 0 0 1.52-.696 3.375 3.375 0 0 0 1.063-1.153c.26-.464.39-1.001.39-1.61 0-.58-.1-1.103-.303-1.567-.203-.464-.543-.9-1.02-1.305-.478-.407-1.1-.798-1.867-1.175-.768-.378-1.715-.77-2.844-1.175l-1.91-.697a14.67 14.67 0 0 1-2.54-1.175 11.13 11.13 0 0 1-2.323-1.784 8.799 8.799 0 0 1-1.715-2.458c-.449-.943-.673-2.01-.673-3.199 0-1.218.238-2.357.716-3.416a8.348 8.348 0 0 1 2.04-2.785c.883-.798 1.94-1.422 3.17-1.871 1.23-.45 2.598-.675 4.103-.675 1.563 0 2.916.21 4.06.631 1.143.42 2.112.958 2.908 1.61.796.653 1.44 1.371 1.933 2.154.492.784.853 1.524 1.085 2.22l-5.167 2.176c-.29-.87-.817-1.654-1.584-2.35-.767-.697-1.817-1.045-3.148-1.045-1.274 0-2.33.298-3.17.892-.839.595-1.259 1.371-1.259 2.329 0 .928.406 1.718 1.216 2.371.81.653 2.098 1.284 3.864 1.893l1.954.653c1.245.435 2.38.936 3.408 1.501 1.028.566 1.91 1.24 2.649 2.024a8.234 8.234 0 0 1 1.693 2.676c.39 1 .586 2.154.586 3.46 0 1.624-.326 3.024-.977 4.199-.651 1.175-1.483 2.14-2.496 2.894a10.846 10.846 0 0 1-3.43 1.697 13.114 13.114 0 0 1-3.734.566zm28.767-3.482h-.347a7.215 7.215 0 0 1-2.692 2.546c-1.129.624-2.417.936-3.864.936-2.692 0-4.696-.827-6.013-2.48-1.317-1.654-1.976-3.86-1.976-6.615V11.314h5.688v12.228c0 1.538.34 2.677 1.02 3.416.68.74 1.672 1.11 2.974 1.11.782 0 1.47-.167 2.063-.5a4.818 4.818 0 0 0 1.52-1.35c.419-.565.737-1.232.954-2.001a9.01 9.01 0 0 0 .326-2.459V11.314h5.688v21.323h-5.34v-2.785zm25.772.218h-.347c-.521.9-1.331 1.668-2.431 2.306-1.1.639-2.46.958-4.082.958a9.193 9.193 0 0 1-3.885-.849 10.39 10.39 0 0 1-3.257-2.35c-.94-1-1.686-2.197-2.236-3.59-.55-1.392-.825-2.916-.825-4.57 0-1.653.275-3.176.825-4.568.55-1.393 1.296-2.59 2.236-3.59.941-1.001 2.026-1.785 3.257-2.35a9.193 9.193 0 0 1 3.885-.849c1.621 0 2.982.32 4.082.957 1.1.639 1.91 1.407 2.431 2.307V1.48h5.688v31.157h-5.34V30.07zm-5.687-2.002c.752 0 1.469-.138 2.149-.413a5.369 5.369 0 0 0 1.802-1.197 5.95 5.95 0 0 0 1.259-1.915c.318-.754.477-1.61.477-2.567 0-.958-.159-1.813-.477-2.568a5.95 5.95 0 0 0-1.26-1.914 5.369 5.369 0 0 0-1.801-1.197 5.669 5.669 0 0 0-2.15-.413c-.752 0-1.468.145-2.148.435-.68.29-1.281.696-1.802 1.218a5.95 5.95 0 0 0-1.26 1.915c-.318.754-.477 1.595-.477 2.524 0 .928.16 1.77.478 2.524a5.95 5.95 0 0 0 1.259 1.915 5.656 5.656 0 0 0 1.802 1.218c.68.29 1.396.435 2.149.435zm25.45-17.13c1.6 0 3.067.273 4.4.821a10.415 10.415 0 0 1 3.453 2.276c.968.97 1.726 2.128 2.273 3.477.548 1.349.822 2.824.822 4.425 0 1.602-.274 3.077-.822 4.425-.547 1.35-1.305 2.508-2.273 3.477-.969.97-2.12 1.728-3.453 2.276-1.333.548-2.8.822-4.4.822-1.6 0-3.066-.274-4.4-.822a10.415 10.415 0 0 1-3.452-2.276c-.969-.969-1.727-2.128-2.274-3.477-.548-1.348-.821-2.823-.821-4.425 0-1.601.273-3.076.82-4.425.548-1.349 1.306-2.508 2.275-3.477.968-.97 2.119-1.728 3.452-2.276 1.334-.548 2.8-.822 4.4-.822zm.235 17.13c.723 0 1.425-.138 2.105-.413a5.369 5.369 0 0 0 1.802-1.197 5.674 5.674 0 0 0 1.238-1.915c.304-.754.456-1.61.456-2.567 0-.958-.152-1.813-.456-2.568a5.674 5.674 0 0 0-1.238-1.914 5.369 5.369 0 0 0-1.802-1.197 5.558 5.558 0 0 0-2.105-.413c-.753 0-1.462.137-2.128.413a5.427 5.427 0 0 0-1.78 1.197 5.674 5.674 0 0 0-1.237 1.914c-.304.755-.456 1.61-.456 2.568 0 .957.152 1.813.456 2.567a5.674 5.674 0 0 0 1.237 1.915 5.427 5.427 0 0 0 3.908 1.61zM101.204 1.48h5.687V18.45h.26l7.121-7.137h7.034v.348l-7.902 7.703 8.553 12.924v.348h-6.73l-5.817-9.356-2.519 2.48v6.876h-5.687V1.48zm37.668 28.372h-.347a7.215 7.215 0 0 1-2.692 2.546c-1.13.624-2.417.936-3.864.936-2.692 0-4.697-.827-6.014-2.48-1.317-1.654-1.975-3.86-1.975-6.615V11.314h5.688v12.228c0 1.538.34 2.677 1.02 3.416.68.74 1.671 1.11 2.974 1.11.781 0 1.469-.167 2.062-.5a4.818 4.818 0 0 0 1.52-1.35c.42-.565.738-1.232.955-2.001a9.01 9.01 0 0 0 .326-2.459V11.314h5.687v21.323h-5.34v-2.785z"/><path fill="#4A90E2" d="M152.444 32.898c-1.042 0-1.932-.37-2.67-1.11a3.651 3.651 0 0 1-1.108-2.675c0-1.045.37-1.93 1.107-2.655.739-.725 1.629-1.088 2.67-1.088 1.043 0 1.925.363 2.65 1.088.723.725 1.084 1.61 1.084 2.655 0 1.044-.361 1.936-1.085 2.676-.724.74-1.606 1.11-2.648 1.11z"/><path fill="#344861" d="M181.053 27.057a11.576 11.576 0 0 1-3.822 4.278c-1.637 1.11-3.68 1.665-6.128 1.665-1.623 0-3.11-.274-4.463-.822a10.412 10.412 0 0 1-3.501-2.297 10.652 10.652 0 0 1-2.306-3.477C160.278 25.07 160 23.602 160 22c0-1.602.278-3.077.833-4.425.555-1.349 1.324-2.508 2.306-3.477.982-.97 2.15-1.728 3.501-2.276 1.353-.548 2.84-.822 4.463-.822 2.42 0 4.455.548 6.106 1.644 1.652 1.095 2.861 2.514 3.63 4.256l-5.124 2.108c-.484-.956-1.103-1.68-1.858-2.17-.754-.493-1.7-.738-2.84-.738-.74 0-1.437.14-2.092.421a5.386 5.386 0 0 0-1.73 1.18 5.395 5.395 0 0 0-1.174 1.855c-.285.73-.427 1.545-.427 2.444 0 .9.142 1.714.427 2.444.285.731.676 1.35 1.174 1.855.499.506 1.075.899 1.73 1.18a5.25 5.25 0 0 0 2.092.421c1.168 0 2.157-.26 2.968-.78.812-.52 1.46-1.27 1.943-2.254l5.125 2.191zM193.684 11c1.6 0 3.067.274 4.4.822a10.415 10.415 0 0 1 3.453 2.276c.968.97 1.726 2.128 2.274 3.477.547 1.348.82 2.823.82 4.425 0 1.602-.273 3.077-.82 4.425-.548 1.349-1.306 2.508-2.274 3.477-.969.97-2.12 1.728-3.453 2.276-1.333.548-2.8.822-4.4.822-1.6 0-3.066-.274-4.4-.822a10.415 10.415 0 0 1-3.452-2.276c-.969-.97-1.727-2.128-2.274-3.477-.547-1.348-.821-2.823-.821-4.425 0-1.602.274-3.077.82-4.425.548-1.349 1.306-2.508 2.275-3.477.968-.97 2.119-1.728 3.452-2.276 1.334-.548 2.8-.822 4.4-.822zm0 5.1a5.263 5.263 0 0 0-3.79 1.56 5.494 5.494 0 0 0-1.2 1.853c-.294.73-.441 1.56-.441 2.487s.147 1.756.442 2.487c.294.73.694 1.348 1.2 1.854a5.263 5.263 0 0 0 3.79 1.56c.701 0 1.382-.134 2.041-.401a5.207 5.207 0 0 0 1.748-1.159 5.494 5.494 0 0 0 1.2-1.854c.294-.73.442-1.56.442-2.487s-.148-1.756-.442-2.487a5.494 5.494 0 0 0-1.2-1.854 5.207 5.207 0 0 0-1.748-1.159c-.66-.267-1.34-.4-2.042-.4zM208.528 11.314h4.889v2.55h.318c.61-.956 1.437-1.726 2.484-2.31 1.047-.585 2.206-.877 3.478-.877 1.483 0 2.729.345 3.736 1.036 1.007.69 1.722 1.54 2.146 2.55.61-.983 1.47-1.827 2.583-2.53 1.113-.704 2.464-1.056 4.054-1.056 1.193 0 2.226.192 3.1.578a5.774 5.774 0 0 1 2.166 1.613c.57.69 1 1.52 1.292 2.49.292.969.437 2.025.437 3.167v14.027h-5.206V19.481c0-2.656-1.087-3.984-3.26-3.984-.688 0-1.298.153-1.828.458a4.08 4.08 0 0 0-1.331 1.235c-.358.518-.636 1.135-.835 1.852a8.62 8.62 0 0 0-.298 2.31v11.2h-5.206V19.481c0-2.656-1.14-3.984-3.418-3.984-.663 0-1.246.153-1.75.458a4.029 4.029 0 0 0-1.271 1.235c-.344.518-.61 1.135-.795 1.852a9.201 9.201 0 0 0-.278 2.31v11.2h-5.207V11.314z"/></g></svg>